<svg 
  width="120" 
  height="120" 
  viewBox="0 0 120 120" 
  fill="none" 
  xmlns="http://www.w3.org/2000/svg"
>
  <path 
    d="M29.5508 17.2002C36.3091 17.2003 42.0446 19.9736 46.7314 25.4756H46.7305C51.4237 30.7844 53.75 37.7085 53.75 46.2002C53.75 55.0706 51.9352 63.2459 48.2998 70.7188C44.6752 78.1693 39.9406 84.6172 34.0967 90.0596L34.0977 90.0605C28.4622 95.4947 22.4173 99.7274 15.9629 102.753L15.5391 102.951L15.3125 102.542L9.0127 91.1416L8.76465 90.6924L9.2207 90.4561L10.2168 89.9287C15.155 87.2563 19.4783 84.0635 23.1904 80.3525C27.1579 76.1862 30.2254 71.8298 32.3994 67.2842C34.4101 62.8951 35.4784 58.7809 35.6289 54.9375C34.8565 55.3893 33.8858 55.8335 32.7256 56.2686L32.707 56.2754L32.6875 56.2812C31.2389 56.6951 29.6924 56.9004 28.0508 56.9004C22.3327 56.9004 17.6001 55.0571 13.8965 51.3535L13.8867 51.3438L13.8779 51.334C10.3908 47.4366 8.65039 42.7153 8.65039 37.2002C8.65039 32.2703 10.4002 27.758 13.8691 23.6768C17.3879 19.336 22.6472 17.2002 29.5508 17.2002ZM87.1504 17.2002C93.906 17.2002 99.6394 19.9714 104.325 25.4688L104.759 25.9717C109.165 31.2132 111.351 37.9707 111.351 46.2002C111.351 55.0705 109.536 63.246 105.9 70.7188C102.275 78.1719 97.5382 84.6229 91.6914 90.0664C86.0576 95.4978 80.0146 99.7285 73.5625 102.753L73.1387 102.951L72.9131 102.542L66.6123 91.1416L66.3643 90.6924L66.8203 90.4561C72.1753 87.6794 76.8303 84.3109 80.79 80.3525C84.5096 76.4466 87.4382 72.3741 89.5811 68.1348L89.999 67.2842C92.0098 62.895 93.079 58.781 93.2295 54.9375C92.4571 55.3894 91.4865 55.8334 90.3262 56.2686L90.3066 56.2754L90.2881 56.2812C88.8344 56.6966 87.1865 56.9004 85.3506 56.9004C79.633 56.9004 74.9945 55.0571 71.4873 51.3438L71.4775 51.334C67.9904 47.4366 66.25 42.7153 66.25 37.2002C66.25 32.2702 68.0007 27.758 71.4697 23.6768C74.9885 19.3362 80.247 17.2002 87.1504 17.2002Z" 
    stroke="black"
  />
</svg> 